<?xml version="1.0" encoding="UTF-8"?><svg id="Ebene_1" xmlns="http://www.w3.org/2000/svg" viewBox="0 0 409.23 134.93"><defs><style>.cls-1{fill:#8b656b;}.cls-2{fill:#780d00;}</style></defs><path class="cls-1" d="M155.34,77.72c-19.43,7.91-58.03,12.94-72.71,12.74-22.88-.31-43.71-4.28-52.12-6.58C5.99,77.19,.07,69.32,0,65.19c-.06-3.73,12.46-5.75,33.53-.9,9.06,2.08,20.36,5.51,20.36,5.51,0,0-18.94-11.25-26.97-17.58C6.74,36.3,3.01,20.42,5.42,16.24c2.71-4.68,26.36-1.65,42.12,12.08,23.58,20.54,21.4,43.09,34.1,42.99,3.77-.03,7.99-2.41,11.03-5.89,5.28-6.04,5.07-9.27,5.07-9.27,.54,5.72-7.01,18.44-18.23,17.54-13.01-1.05-16.59-25.26-37.75-42.25-15.79-12.69-27.78-11.33-29.05-8.82-1.7,3.34,1.52,14.41,16.95,27.77,21.64,18.74,47.63,28.33,50.42,30.38-4.58-1.31-27.46-10.14-45.71-13.97-14.75-3.09-25.46-2.8-26.23-1.06-.99,2.23,12.71,11.18,25.42,14.09,17.06,3.9,34.86,8.4,50.61,8.74,15.33,.33,41.22-4.16,63.79-12.7,16.94-6.41,33.89-19.22,33.05-22.96-.9-4.01-18.93-4.14-34.24,1.46-21.79,7.98-46.85,22.84-47.94,23.36,.94-.79,12.97-9.5,45.74-29,23.29-13.86,31.68-37.01,29.15-39.88-4.12-4.66-28.54,4.45-51.5,28.21-12.01,12.43-21.86,25.89-30.66,46.84-8.94,21.3-1.07,44.81,7.27,51.04-16.21-6.47-20.87-33.19-11.67-51.04,7.26-14.09,22.37-36.47,30.29-44.78C154.32,.42,178.57-2.65,181.18,1.3c3.52,5.32-5.41,24.3-15.93,34.67-9.93,9.79-21.31,15.79-21.31,15.79,0,0,10.93-3.93,21.73-5.45,10.96-1.55,21.8-.67,22.97,2.19,1.53,3.76-7.99,18.92-33.3,29.23"/><path class="cls-2" d="M96.67,45.47c1.09,1.73,1.02,6.87-3.24,12.18-5.91,7.36-11.35,8.06-11.35,8.06,0,0,2.24-4.72-1.61-9.03-2.17-2.42-4.77-8.53-1.4-11.57,.88-.79,2.67-1.36,3.96-1.19,2.15,.28,3.95,1.72,3.95,1.72,.75-1.04,3.08-2.69,5.52-2.65,1.46,.02,2.96,.54,4.18,2.48"/><path class="cls-2" d="M396.8,95.73v-4.81h9.64v-3.74h-9.64v-4.51h10.92v-3.86h-15.7v20.77h16.08v-3.86h-11.3Zm-21.46,3.86h4.81v-16.85h6.65v-3.92h-18.1v3.92h6.65v16.85Zm-22.19,0h4.81v-16.85h6.65v-3.92h-18.1v3.92h6.65v16.85Zm-22.45-3.86v-4.81h9.64v-3.74h-9.64v-4.51h10.92v-3.86h-15.7v20.77h16.08v-3.86h-11.3Zm-17.28-16.91v12.61l-10.33-12.61h-3.98v20.77h4.75v-12.61l10.35,12.61h3.95v-20.77h-4.75Zm-26.81,0v12.61l-10.33-12.61h-3.98v20.77h4.75v-12.61l10.35,12.61h3.95v-20.77h-4.75Zm-34.33,12.67l3.29-7.95,3.29,7.95h-6.59Zm9.94,8.1h5.04l-9.29-20.77h-4.75l-9.26,20.77h4.93l1.84-4.45h9.64l1.84,4.45Zm-34.08-3.86v-4.81h9.64v-3.74h-9.64v-4.51h10.92v-3.86h-15.7v20.77h16.08v-3.86h-11.3Zm-19.86,4.21c4.9,0,7.48-2.52,7.48-7.65v-13.47h-12.08v3.86h7.3v9.88c0,2.28-1.01,3.44-2.94,3.44-1.48,0-2.73-.77-3.86-2.28l-2.67,3.21c1.51,1.96,3.98,3.03,6.77,3.03"/><path class="cls-2" d="M394.01,63.99h15.22v-3.92h-10.41v-16.85h-4.81v20.77Zm-18.12-3.86v-4.81h9.64v-3.74h-9.64v-4.51h10.92v-3.86h-15.7v20.77h16.08v-3.86h-11.3Zm-17.28-16.91v12.61l-10.32-12.61h-3.98v20.77h4.75v-12.61l10.35,12.61h3.95v-20.77h-4.75Zm-26.87,0v8.19h-9.43v-8.19h-4.81v20.77h4.81v-8.51h9.43v8.51h4.81v-20.77h-4.81Zm-31.22,21.12c5.9,0,9.4-3.38,9.4-9.49v-11.63h-4.75v11.45c0,3.95-1.69,5.58-4.63,5.58s-4.63-1.63-4.63-5.58v-11.45h-4.81v11.63c0,6.11,3.5,9.49,9.41,9.49m3.03-22.96c1.16,0,2.08-.83,2.08-2.05s-.92-2.05-2.08-2.05-2.05,.83-2.05,2.05,.89,2.05,2.05,2.05m-5.99,0c1.16,0,2.05-.83,2.05-2.05s-.89-2.05-2.05-2.05-2.08,.83-2.08,2.05,.92,2.05,2.08,2.05m-16.73,22.61h5.61l-9.11-11.51,8.6-9.26h-5.34l-9.2,9.7v-9.7h-4.78v20.77h4.78v-5.25l2.79-2.91,6.65,8.16Z"/></svg>